<svg xmlns="http://www.w3.org/2000/svg" viewBox="0 0 512 512" width="512" height="512">
  <defs>
    <linearGradient id="grad1" x1="0%" y1="0%" x2="100%" y2="100%">
      <stop offset="0%" style="stop-color:#6366f1;stop-opacity:1" />
      <stop offset="100%" style="stop-color:#8b5cf6;stop-opacity:1" />
    </linearGradient>
  </defs>

  <!-- Background circle -->
  <circle cx="256" cy="256" r="240" fill="url(#grad1)"/>

  <!-- Left document (source) -->
  <g transform="translate(90, 140)">
    <rect x="0" y="0" width="100" height="130" rx="8" fill="#ffffff" opacity="0.9"/>
    <rect x="15" y="20" width="70" height="8" rx="4" fill="#6366f1" opacity="0.4"/>
    <rect x="15" y="38" width="55" height="8" rx="4" fill="#6366f1" opacity="0.4"/>
    <rect x="15" y="56" width="65" height="8" rx="4" fill="#6366f1" opacity="0.4"/>
    <rect x="15" y="74" width="45" height="8" rx="4" fill="#6366f1" opacity="0.4"/>
    <rect x="15" y="92" width="60" height="8" rx="4" fill="#6366f1" opacity="0.4"/>
  </g>

  <!-- Middle document (source) -->
  <g transform="translate(140, 180)">
    <rect x="0" y="0" width="100" height="130" rx="8" fill="#ffffff" opacity="0.85"/>
    <rect x="15" y="20" width="60" height="8" rx="4" fill="#8b5cf6" opacity="0.4"/>
    <rect x="15" y="38" width="70" height="8" rx="4" fill="#8b5cf6" opacity="0.4"/>
    <rect x="15" y="56" width="50" height="8" rx="4" fill="#8b5cf6" opacity="0.4"/>
    <rect x="15" y="74" width="65" height="8" rx="4" fill="#8b5cf6" opacity="0.4"/>
    <rect x="15" y="92" width="55" height="8" rx="4" fill="#8b5cf6" opacity="0.4"/>
  </g>

  <!-- Right document (output/rolled) -->
  <g transform="translate(290, 160)">
    <rect x="0" y="0" width="120" height="160" rx="8" fill="#ffffff"/>
    <rect x="15" y="20" width="90" height="8" rx="4" fill="#4f46e5"/>
    <rect x="15" y="38" width="75" height="8" rx="4" fill="#4f46e5"/>
    <rect x="15" y="56" width="85" height="8" rx="4" fill="#4f46e5"/>
    <rect x="15" y="74" width="65" height="8" rx="4" fill="#4f46e5"/>
    <rect x="15" y="92" width="80" height="8" rx="4" fill="#4f46e5"/>
    <rect x="15" y="110" width="70" height="8" rx="4" fill="#4f46e5"/>
    <rect x="15" y="128" width="88" height="8" rx="4" fill="#4f46e5"/>
  </g>

  <!-- Arrow indicating aggregation -->
  <g transform="translate(245, 240)">
    <path d="M 0 0 L 30 0 L 30 -10 L 50 10 L 30 30 L 30 20 L 0 20 Z" fill="#ffffff" opacity="0.95"/>
  </g>
</svg>
